<svg id="Layer_1" data-name="Layer 1" xmlns="http://www.w3.org/2000/svg" viewBox="0 0 72 19"><defs><style>.cls-1{fill:#04d3c4;}</style></defs><title>Artboard 1</title><path class="cls-1" d="M8.8,15.26a.55.55,0,0,1,.11.33.58.58,0,0,1-.16.42.49.49,0,0,1-.38.18,1.07,1.07,0,0,1-.52-.2l-7-4a.69.69,0,0,1-.33-.28.86.86,0,0,1-.09-.42.76.76,0,0,1,.48-.68L7.79,6.69a.94.94,0,0,1,.46-.16.56.56,0,0,1,.43.16.53.53,0,0,1,.19.4.58.58,0,0,1-.36.54l-6.58,3.7L8.43,15A1.18,1.18,0,0,1,8.8,15.26Z"/><path class="cls-1" d="M10.53,18.62a.57.57,0,0,1-.16-.41.64.64,0,0,1,.08-.3L19.15.69a1.16,1.16,0,0,1,.29-.37.7.7,0,0,1,.37-.11.55.55,0,0,1,.36.15.48.48,0,0,1,.16.39.9.9,0,0,1-.08.36l-8.7,17.24a1.16,1.16,0,0,1-.28.34A.58.58,0,0,1,10.53,18.62Z"/><path class="cls-1" d="M29.57,7a4.54,4.54,0,0,1,.88,2.91v5.66a.6.6,0,1,1-1.2,0V9.93a3.4,3.4,0,0,0-.62-2.11A2.29,2.29,0,0,0,26.69,7a3.41,3.41,0,0,0-2.8,1.48,2.5,2.5,0,0,0-.46,1.45v5.66a.6.6,0,1,1-1.2,0V2a.6.6,0,1,1,1.2,0V7.85a4.22,4.22,0,0,1,1.5-1.41,3.91,3.91,0,0,1,2-.55A3.2,3.2,0,0,1,29.57,7Z"/><path class="cls-1" d="M35.59,7.13v6.7a1.37,1.37,0,0,0,.28,1,1,1,0,0,0,.74.27,1,1,0,0,0,.3,0,1.37,1.37,0,0,1,.28-.05.42.42,0,0,1,.31.15.51.51,0,0,1,.13.35.54.54,0,0,1-.32.47,1.43,1.43,0,0,1-.76.19,3.74,3.74,0,0,1-1-.1,1.57,1.57,0,0,1-.81-.6,2.59,2.59,0,0,1-.39-1.6V7.13H32.93A.55.55,0,0,1,32.52,7a.56.56,0,0,1,0-.79h0a.58.58,0,0,1,.41-.2h1.46V3.79a.6.6,0,0,1,1.2,0h0V6h2a.53.53,0,0,1,.39.18.56.56,0,0,1,.17.4A.48.48,0,0,1,38,7a.59.59,0,0,1-.4.15Z"/><path class="cls-1" d="M54.62,7a4.73,4.73,0,0,1,.85,2.93v5.66a.6.6,0,1,1-1.2,0V10a3.5,3.5,0,0,0-.63-2.15,2.32,2.32,0,0,0-2-.85,3.37,3.37,0,0,0-2.8,1.5,2.68,2.68,0,0,0-.46,1.5v5.6a.6.6,0,1,1-1.2,0V9.93a3.51,3.51,0,0,0-.6-2.11A2.2,2.2,0,0,0,44.75,7a3.22,3.22,0,0,0-1.55.4A3.31,3.31,0,0,0,42,8.48a2.59,2.59,0,0,0-.45,1.45v5.66a.6.6,0,1,1-1.2,0v-9a.6.6,0,0,1,1.2,0h0v1.2A4.39,4.39,0,0,1,43,6.43a3.8,3.8,0,0,1,2-.54,3.54,3.54,0,0,1,2,.56,3,3,0,0,1,1.2,1.64,3.69,3.69,0,0,1,1.54-1.54A4.41,4.41,0,0,1,52,5.89,3.16,3.16,0,0,1,54.62,7Z"/><path class="cls-1" d="M59.76,16a.6.6,0,0,1-.85-.05.58.58,0,0,1-.15-.38V2A.6.6,0,0,1,60,2V15.6A.57.57,0,0,1,59.76,16Z"/><path class="cls-1" d="M71.57,11.37a.7.7,0,0,1-.1.4.89.89,0,0,1-.34.3L64,16a1,1,0,0,1-.5.18A.5.5,0,0,1,63.1,16a.56.56,0,0,1-.17-.4.5.5,0,0,1,.1-.33.94.94,0,0,1,.38-.27l6.64-3.6L63.33,7.65a.61.61,0,0,1-.17-1,.53.53,0,0,1,.41-.15,1,1,0,0,1,.48.18l7,4A.83.83,0,0,1,71.57,11.37Z"/></svg>