<svg id="Layer_1" data-name="Layer 1" xmlns="http://www.w3.org/2000/svg" viewBox="0 0 72 19"><defs><style>.cls-1{fill:#04d3c4;}</style></defs><title>Artboard 3</title><path class="cls-1" d="M20.84,14.38a.83.83,0,0,1-.18-.57v-.42a.82.82,0,0,1,.18-.56.72.72,0,0,1,.52-.2h.14a.72.72,0,0,1,.52.2.82.82,0,0,1,.18.56v.42a.83.83,0,0,1-.18.57.6.6,0,0,1-.52.21h-.14A.6.6,0,0,1,20.84,14.38Z"/><path class="cls-1" d="M23,18.39a.54.54,0,0,1-.16-.4v-.08a.59.59,0,0,1,.14-.37.69.69,0,0,1,.38-.19,2.18,2.18,0,0,0,1.23-.65,1.86,1.86,0,0,0,.49-1.37V5a.6.6,0,0,1,1.2,0h0V15.5a3,3,0,0,1-.43,1.61,2.94,2.94,0,0,1-1.1,1.06,2.66,2.66,0,0,1-1.35.37A.5.5,0,0,1,23,18.39ZM25.06,2.64a.7.7,0,0,1-.22-.55v-.2a.69.69,0,0,1,.23-.55,1,1,0,0,1,.63-.19c.53,0,.8.25.8.74v.2a.69.69,0,0,1-.21.55.84.84,0,0,1-.61.19A.88.88,0,0,1,25.06,2.64Z"/><path class="cls-1" d="M28.9,12.53a.45.45,0,0,1,.26-.4A.47.47,0,0,1,29.5,12a.65.65,0,0,1,.44.2,3.72,3.72,0,0,0,3.14,1.56,2.9,2.9,0,0,0,1.67-.45A1.47,1.47,0,0,0,35.44,12a1.39,1.39,0,0,0-.66-1.26A6.4,6.4,0,0,0,32.94,10a7.65,7.65,0,0,1-2.6-1.09A2.27,2.27,0,0,1,29.4,7a2.53,2.53,0,0,1,.46-1.5,3.14,3.14,0,0,1,1.25-1,4.41,4.41,0,0,1,1.79-.36,5.11,5.11,0,0,1,1.73.33,3.71,3.71,0,0,1,1.49,1,.49.49,0,0,1,.18.4.52.52,0,0,1-.2.42.48.48,0,0,1-.36.12.45.45,0,0,1-.36-.16,3.23,3.23,0,0,0-1.14-.82,3.63,3.63,0,0,0-1.42-.28,2.94,2.94,0,0,0-1.61.44,1.5,1.5,0,0,0-.42,2.08,1.41,1.41,0,0,0,.48.46,7.57,7.57,0,0,0,2,.76A10.23,10.23,0,0,1,35,9.47a3,3,0,0,1,1.11.9A2.51,2.51,0,0,1,36.56,12a2.41,2.41,0,0,1-1.06,2,4.11,4.11,0,0,1-2.58.77A4.67,4.67,0,0,1,29.06,13,.86.86,0,0,1,28.9,12.53Z"/><path class="cls-1" d="M43.56,18.35a8.53,8.53,0,0,1-3.75-3.65A10.9,10.9,0,0,1,38.5,9.45,10.21,10.21,0,0,1,43.58.55a.9.9,0,0,1,.28-.08.52.52,0,0,1,.37.17.55.55,0,0,1,0,.78l-.07.05a8.55,8.55,0,0,0-3.26,3.38,9.52,9.52,0,0,0-1.18,4.6,9.93,9.93,0,0,0,1.16,4.66,7.78,7.78,0,0,0,3.28,3.34.45.45,0,0,1,.24.44.57.57,0,0,1-.14.38.42.42,0,0,1-.38.16A.64.64,0,0,1,43.56,18.35Z"/><path class="cls-1" d="M45.59,18.24a.52.52,0,0,1,0-.74.43.43,0,0,1,.1-.09A8.37,8.37,0,0,0,49,14a9.46,9.46,0,0,0,1.18-4.6A9.88,9.88,0,0,0,49,4.74,8,8,0,0,0,45.7,1.43.45.45,0,0,1,45.5,1a.62.62,0,0,1,.1-.39A.48.48,0,0,1,46,.45a.74.74,0,0,1,.3.08A8.8,8.8,0,0,1,50,4.19a10.68,10.68,0,0,1,1.32,5.24,10.23,10.23,0,0,1-5.08,8.9.52.52,0,0,1-.3.08A.45.45,0,0,1,45.59,18.24Z"/></svg>