<svg id="Layer_1" data-name="Layer 1" xmlns="http://www.w3.org/2000/svg" viewBox="0 0 72 19"><defs><style>.cls-1{fill:#04d3c4;}</style></defs><title>Artboard 2</title><path class="cls-1" d="M20.56,17.86a.48.48,0,0,1,.08.35.4.4,0,0,1-.14.27.46.46,0,0,1-.3.11H20a6.74,6.74,0,0,1-2.34-.86,2.86,2.86,0,0,1-1.13-1.28,4.58,4.58,0,0,1-.31-1.8V13a3.76,3.76,0,0,0-.54-2.09A2,2,0,0,0,14,10h-.1a.54.54,0,0,1-.38-.15.47.47,0,0,1-.16-.37.48.48,0,0,1,.16-.35A.53.53,0,0,1,13.9,9H14a1.93,1.93,0,0,0,1.72-.81,3.66,3.66,0,0,0,.52-2.09V4.4a3.89,3.89,0,0,1,.45-2,3.15,3.15,0,0,1,1.25-1.18A8.76,8.76,0,0,1,20,.47h.22a.38.38,0,0,1,.33.14.54.54,0,0,1,.11.32.44.44,0,0,1-.11.29.61.61,0,0,1-.29.19,7.9,7.9,0,0,0-1.82.77,2,2,0,0,0-.82.94,4,4,0,0,0-.22,1.45V6.21a4.36,4.36,0,0,1-.49,2.13,2.26,2.26,0,0,1-1.33,1.15,2.36,2.36,0,0,1,1.36,1.18,4.37,4.37,0,0,1,.48,2.12v1.66a4.17,4.17,0,0,0,.21,1.49,2,2,0,0,0,.82,1,7.15,7.15,0,0,0,1.83.76A.61.61,0,0,1,20.56,17.86Z"/><path class="cls-1" d="M29.23,4.32a3.79,3.79,0,0,1,1.3.57,1,1,0,0,1,.49.78.59.59,0,0,1-.15.4.46.46,0,0,1-.37.18.64.64,0,0,1-.33-.08,1.68,1.68,0,0,1-.29-.24,2.07,2.07,0,0,0-.5-.38,3.58,3.58,0,0,0-.79-.23,6.2,6.2,0,0,0-1.05-.09,3.8,3.8,0,0,0-2,.56A4,4,0,0,0,24.1,7.31a4.35,4.35,0,0,0-.52,2.12,4.63,4.63,0,0,0,.5,2.16,3.88,3.88,0,0,0,1.39,1.51,3.7,3.7,0,0,0,2,.55,4.45,4.45,0,0,0,1.15-.12,3.68,3.68,0,0,0,.85-.34,4.29,4.29,0,0,0,.48-.36l.28-.21a.48.48,0,0,1,.26-.07.5.5,0,0,1,.38.15.57.57,0,0,1,.14.39,1,1,0,0,1-.48.73,4.12,4.12,0,0,1-1.32.67,5.6,5.6,0,0,1-1.86.28,4.88,4.88,0,0,1-2.6-.69A4.67,4.67,0,0,1,23,12.17a5.92,5.92,0,0,1-.63-2.74A5.64,5.64,0,0,1,23,6.76a5.06,5.06,0,0,1,1.8-1.93,4.89,4.89,0,0,1,2.66-.72A7,7,0,0,1,29.23,4.32Z"/><path class="cls-1" d="M32.6,12.51a.66.66,0,0,1,.58-.52.65.65,0,0,1,.44.2,3.74,3.74,0,0,0,3.14,1.56,3,3,0,0,0,1.67-.45,1.46,1.46,0,0,0,.71-1.3,1.4,1.4,0,0,0-.66-1.26A6.4,6.4,0,0,0,36.64,10,7.71,7.71,0,0,1,34,8.92a2.25,2.25,0,0,1-.94-2,2.42,2.42,0,0,1,.46-1.47,3.06,3.06,0,0,1,1.25-1,4.22,4.22,0,0,1,1.79-.36,4.88,4.88,0,0,1,1.73.33,3.67,3.67,0,0,1,1.49,1,.49.49,0,0,1,.18.4.56.56,0,0,1-.2.42.52.52,0,0,1-.36.12A.48.48,0,0,1,39,6.2a3.23,3.23,0,0,0-1.14-.82,3.63,3.63,0,0,0-1.42-.28,2.94,2.94,0,0,0-1.61.44,1.5,1.5,0,0,0-.47,2.07,1.56,1.56,0,0,0,.6.54,7.94,7.94,0,0,0,2,.76,9.41,9.41,0,0,1,1.72.58,2.86,2.86,0,0,1,1.11.9,2.47,2.47,0,0,1,.43,1.54,2.45,2.45,0,0,1-1,2.07,4.24,4.24,0,0,1-2.58.77A4.68,4.68,0,0,1,32.76,13,.84.84,0,0,1,32.6,12.51Z"/><path class="cls-1" d="M42,12.51a.66.66,0,0,1,.58-.52.65.65,0,0,1,.44.2,3.74,3.74,0,0,0,3.14,1.56,3,3,0,0,0,1.67-.45,1.46,1.46,0,0,0,.69-1.3,1.4,1.4,0,0,0-.66-1.26A6.52,6.52,0,0,0,46,10a7.65,7.65,0,0,1-2.6-1.09,2.25,2.25,0,0,1-.94-2,2.42,2.42,0,0,1,.46-1.47,3.06,3.06,0,0,1,1.25-1A4.4,4.4,0,0,1,46,4.11a4.88,4.88,0,0,1,1.73.33,3.67,3.67,0,0,1,1.49,1,.49.49,0,0,1,.18.4.56.56,0,0,1-.2.42.52.52,0,0,1-.36.12.48.48,0,0,1-.36-.16,3.23,3.23,0,0,0-1.14-.82,3.63,3.63,0,0,0-1.42-.28,2.94,2.94,0,0,0-1.61.44,1.5,1.5,0,0,0-.42,2.08,1.41,1.41,0,0,0,.48.46,7.94,7.94,0,0,0,2,.76,9.41,9.41,0,0,1,1.72.58,2.86,2.86,0,0,1,1.11.9,2.47,2.47,0,0,1,.43,1.54,2.45,2.45,0,0,1-1,2.07,4.24,4.24,0,0,1-2.58.77A4.68,4.68,0,0,1,42.14,13,.85.85,0,0,1,42,12.51Z"/><path class="cls-1" d="M58.49,9.13a.54.54,0,0,1,.15.38.47.47,0,0,1-.15.35.51.51,0,0,1-.37.15H58a1.93,1.93,0,0,0-1.72.81,3.66,3.66,0,0,0-.52,2.09v1.7a3.53,3.53,0,0,1-.33,1.63,3.19,3.19,0,0,1-1.11,1.14A15.75,15.75,0,0,1,52,18.55h-.16a.45.45,0,0,1-.36-.14.47.47,0,0,1-.12-.32.44.44,0,0,1,.11-.29.63.63,0,0,1,.31-.19,7.49,7.49,0,0,0,1.82-.77,2,2,0,0,0,.81-.94,4.17,4.17,0,0,0,.21-1.49V12.79a4.5,4.5,0,0,1,.49-2.16,2.17,2.17,0,0,1,1.37-1.14A2.21,2.21,0,0,1,55.1,8.35a4.49,4.49,0,0,1-.48-2.16V4.55a4.2,4.2,0,0,0-.21-1.49,2,2,0,0,0-.82-1,7.39,7.39,0,0,0-1.81-.76.6.6,0,0,1-.31-.21.54.54,0,0,1-.09-.35.5.5,0,0,1,.16-.27A.4.4,0,0,1,51.8.41H52a7.08,7.08,0,0,1,2.35.86,2.86,2.86,0,0,1,1.13,1.28,4.64,4.64,0,0,1,.3,1.8v1.7a3.74,3.74,0,0,0,.54,2.09A1.9,1.9,0,0,0,58,9h.12A.5.5,0,0,1,58.49,9.13Z"/></svg>